<?xml version="1.0" encoding="utf-8"?>
<!-- Generator: Adobe Illustrator 25.2.3, SVG Export Plug-In . SVG Version: 6.00 Build 0)  -->
<svg version="1.1" id="Слой_1" xmlns="http://www.w3.org/2000/svg" xmlns:xlink="http://www.w3.org/1999/xlink" x="0px" y="0px"
	 viewBox="0 0 64 64" style="enable-background:new 0 0 64 64;" xml:space="preserve">
<style type="text/css">
	.st0{fill:#EED9D1;}
	.st1{fill:#DDB3A2;}
	.st2{fill:#CC8C74;}
	.st3{fill:#F9DD8F;}
	.st4{fill:#ED7899;}
	.st5{fill:#8D6C9F;}
</style>
<path class="st0" d="M38.8,9.9c0,0,4.1-7.6,7.5-6.9c2.2,3.6,3.1,7.8,2.4,12C47.3,21.7,38.8,9.9,38.8,9.9z M17.2,16.8
	c0,0-1.7-11.2,2.6-13.8c0,0,7,3.2,7.8,8.3S17.2,16.8,17.2,16.8z"/>
<path class="st1" d="M52.4,38.6c0.9,1.6,1.7,3.2,2.2,5l0,0c1,4.2,1.4,8.4,1.4,12.7V59c0,1.1-0.9,2-2,2H12c-1.1,0-2-0.9-2-2v-2.7
	c0-4.3,0.5-8.5,1.4-12.7l0,0c0.5-1.7,1.2-3.4,2.1-4.9"/>
<path class="st1" d="M53,25c0,11.7-9,16-20,16s-20-3.3-20-16c0-8.8,9-16,20-16S53,16.2,53,25z"/>
<path class="st2" d="M13,56h40c1.7,0,3,1.3,3,3l0,0c0,1.1-0.9,2-2,2H12c-1.1,0-2-0.9-2-2l0,0C10,57.3,11.3,56,13,56z"/>
<path class="st3" d="M33,45c-1.7,0-3,1.3-3,3s1.3,3,3,3c1.7,0,3-1.3,3-3S34.7,45,33,45z"/>
<path class="st4" d="M52.4,36.7c0.4,0.8,0.3,1.7-0.3,2.3c-0.5,0.4-0.9,0.8-1.4,1.1C45.5,43.8,38.3,45,33.1,45h-0.3
	c-4,0-8.1-0.7-11.9-2c-2-0.7-3.9-1.6-5.6-2.9c-0.5-0.3-1-0.7-1.5-1.1c-0.6-0.6-0.8-1.5-0.3-2.3l0,0c0.2-0.3,0.3-0.5,0.5-0.8
	c0.4-0.6,1.3-0.8,2-0.4c0.1,0,0.1,0.1,0.2,0.2l0,0C21.9,41.2,33,41,33,41s11.1,0.2,16.8-5.3l0,0c0.6-0.6,1.5-0.6,2,0
	c0.1,0.1,0.1,0.1,0.2,0.2C52.1,36.2,52.3,36.4,52.4,36.7z M32.2,30l-1.9-2.4c-0.3-0.4-0.2-1.1,0.2-1.4c0.2-0.1,0.4-0.2,0.6-0.2h3.8
	c0.6,0,1,0.5,1,1c0,0.2-0.1,0.4-0.2,0.6L33.8,30c-0.3,0.4-1,0.5-1.4,0.2C32.3,30.1,32.3,30.1,32.2,30z"/>
<path class="st5" d="M22,23c0.6,0,1-0.4,1-1c0-1.1,0.9-2,2-2s2,0.9,2,2c0,0.6,0.4,1,1,1s1-0.4,1-1c0-2.2-1.8-4-4-4s-4,1.8-4,4
	C21,22.6,21.4,23,22,23z M38,23c0.6,0,1-0.4,1-1c0-1.1,0.9-2,2-2s2,0.9,2,2c0,0.6,0.4,1,1,1s1-0.4,1-1c0-2.2-1.8-4-4-4s-4,1.8-4,4
	C37,22.6,37.4,23,38,23z M31.4,30.6c0.1,0.1,0.2,0.2,0.4,0.4c-0.5,1.2-1.8,2-3.7,2c-1.3,0.1-2.6-0.5-3.4-1.6
	c-0.3-0.4-0.9-0.5-1.4-0.2c-0.4,0.3-0.5,0.9-0.2,1.4c0,0,0.1,0.1,0.1,0.1c1.1,1.6,3,2.5,4.9,2.4c1.9,0.1,3.7-0.7,4.9-2.1
	c1.2,1.4,3,2.2,4.9,2.1c1.9,0.1,3.8-0.8,4.9-2.4c0.3-0.4,0.2-1.1-0.2-1.4c-0.4-0.3-1-0.2-1.3,0.1c-0.7,1.1-2,1.7-3.3,1.6
	c-1.9,0-3.2-0.8-3.7-2c0.1-0.1,0.3-0.2,0.4-0.4l1.9-2.4c0.7-0.9,0.6-2.1-0.3-2.8c-0.4-0.3-0.8-0.4-1.2-0.4h-3.8c-1.1,0-2,0.9-2,2
	c0,0.5,0.2,0.9,0.4,1.2L31.4,30.6z M34.9,27l-1.6,2.1c-0.2-0.1-0.4-0.1-0.5,0L31.1,27H34.9z"/>
<path class="st5" d="M55.5,43.4c-0.5-1.7-1.1-3.3-2-4.8c0.3-0.8,0.2-1.7-0.2-2.4c-0.2-0.3-0.3-0.5-0.5-0.8c-0.2-0.3-0.5-0.6-0.8-0.7
	c1.3-2,2-4.3,2-6.7c0-5.3-1.3-9.6-3.9-12.9c0,0,0,0,0-0.1c0-7.9-1.7-11.1-2.8-12.3C46.8,2,45.8,1.8,45,2.2c-2.8,1.4-5.1,3.6-6.7,6.3
	c-3.5-0.7-7.2-0.7-10.7,0c-1.5-2.7-3.8-4.9-6.6-6.3c-0.8-0.4-1.7-0.1-2.3,0.5c-1.1,1.3-2.8,4.5-2.8,12.3c0,0,0,0.1,0,0.1
	C13.3,18.5,12,22.8,12,28c0,2.4,0.7,4.7,2,6.6c-0.3,0.2-0.6,0.4-0.8,0.7c-0.2,0.3-0.4,0.6-0.6,0.9c-0.4,0.7-0.5,1.6-0.2,2.4
	c-0.9,1.5-1.5,3.1-2,4.8C9.5,47.6,9,52,9,56.3V59c0,1.6,1.4,3,3,3h42c1.6,0,3-1.3,3-3v-2.7C57,52,56.5,47.7,55.5,43.4z M17.8,15.9
	c0.3-0.3,0.3-0.8,0.1-1.2c0-7.3,1.6-9.9,2.3-10.8c2.3,1.1,4.1,2.8,5.4,5c-0.7,0.2-1.3,0.4-1.9,0.6c-0.5,0.2-0.8,0.8-0.6,1.3
	c0.2,0.5,0.8,0.8,1.3,0.6c2.8-1,5.7-1.5,8.6-1.5c1.9,0,3.8,0.2,5.7,0.6c0.3,0.1,0.6,0,0.8-0.2l0,0c0.1-0.1,0.2-0.2,0.2-0.3l0,0
	C41,7.5,43.2,5.3,45.8,4c0.6,0.7,2,3,2.2,9c-0.5-0.4-1-0.8-1.5-1.2c-0.5-0.3-1.1-0.2-1.4,0.2c-0.3,0.5-0.2,1.1,0.2,1.4
	C49.8,16.5,52,21.4,52,28c0.1,2.6-0.9,5.2-2.8,7l-0.2,0.2l-0.3,0.3l-0.2,0.2l-0.3,0.3l-0.3,0.2l-0.3,0.2l-0.3,0.2l-0.3,0.2l-0.3,0.2
	l-0.3,0.1l-0.4,0.2l-0.2,0.1l-0.5,0.2l-0.2,0.1L44.5,38h-0.1l-0.6,0.3l0,0C40.3,39.4,36.7,40,33,40c-0.1,0-10.6,0.1-16-4.9L16.8,35
	c-1.9-1.8-2.9-4.4-2.8-7C14,23,15.3,18.9,17.8,15.9z M32.9,46h0.3c1.1,0.1,1.9,1,1.8,2.1c-0.1,1.1-1,1.9-2.1,1.8
	c-1.1-0.1-1.9-1-1.8-2.1C31.1,46.9,31.9,46.1,32.9,46z M21.3,42.1c-1.9-0.7-3.7-1.6-5.4-2.7c-0.5-0.3-1-0.7-1.4-1.1
	c-0.3-0.3-0.3-0.7-0.1-1c0.2-0.3,0.3-0.5,0.5-0.8c0.1-0.1,0.2-0.2,0.3-0.2l0,0c0.1,0,0.3,0.1,0.3,0.2c0.3,0.3,0.6,0.5,0.9,0.8
	l0.1,0.1c0.3,0.3,0.7,0.5,1,0.7l0.2,0.1c0.3,0.2,0.7,0.4,1,0.6l0.2,0.1c0.4,0.2,0.7,0.4,1.1,0.5l0.3,0.1c0.4,0.2,0.7,0.3,1.1,0.4
	l0.3,0.1l1,0.3l0.4,0.1l0.8,0.2l0.6,0.2l0.6,0.2l0.8,0.2l0.4,0.1l1,0.2h0.1c1.5,0.2,3,0.4,4.6,0.5v2C28.4,43.9,24.7,43.3,21.3,42.1
	L21.3,42.1z M34,44v-2c1.5,0,2.9-0.2,4.3-0.4h0.2l1-0.2l0.4-0.1l0.8-0.2l0.6-0.1l0.7-0.2l0.7-0.2l0.5-0.2l0.9-0.3l0.4-0.2l1-0.4
	l0.4-0.2c0.3-0.2,0.7-0.3,1-0.5l0.3-0.2c0.3-0.2,0.7-0.4,1-0.6l0.3-0.2c0.3-0.2,0.7-0.4,1-0.7l0.2-0.2c0.3-0.3,0.6-0.5,0.9-0.8
	c0.1-0.1,0.2-0.1,0.4-0.1c0.1,0,0.2,0.1,0.3,0.2c0.2,0.2,0.3,0.5,0.4,0.7c0.1,0.3,0.1,0.6,0,0.8l0,0c0,0.1-0.1,0.2-0.2,0.2
	c-0.4,0.4-0.9,0.7-1.3,1.1C44.5,43.3,37.2,43.9,34,44z M55,59c0,0.6-0.4,1-1,1H12c-0.6,0-1-0.4-1-1v-2.7c0-4.2,0.5-8.3,1.4-12.4
	c0.3-1.3,0.8-2.5,1.4-3.7c0.3,0.3,0.6,0.5,0.9,0.7c1.8,1.3,3.8,2.3,5.9,3c2.9,1,5.9,1.6,9,1.9c-1.2,1.9-0.7,4.3,1.2,5.5
	c1.9,1.2,4.3,0.7,5.5-1.2c0.8-1.3,0.8-3,0-4.3c3.9-0.3,10-1.5,14.9-4.9c0.3-0.2,0.6-0.5,0.9-0.7c0.6,1.2,1.1,2.4,1.4,3.7
	C54.5,48,55,52.2,55,56.3V59z"/>
<path class="st5" d="M38,54c-0.6,0-1,0.4-1,1v2c0,0.6,0.4,1,1,1s1-0.4,1-1v-2C39,54.4,38.6,54,38,54z M43,54c-0.6,0-1,0.4-1,1v2
	c0,0.6,0.4,1,1,1s1-0.4,1-1v-2C44,54.4,43.6,54,43,54z M48,54c-0.6,0-1,0.4-1,1v2c0,0.6,0.4,1,1,1s1-0.4,1-1v-2
	C49,54.4,48.6,54,48,54z M52,55v2c0,0.6,0.4,1,1,1s1-0.4,1-1v-2c0-0.6-0.4-1-1-1S52,54.4,52,55z M28,54c-0.6,0-1,0.4-1,1v2
	c0,0.6,0.4,1,1,1s1-0.4,1-1v-2C29,54.4,28.6,54,28,54z M33,54c-0.6,0-1,0.4-1,1v2c0,0.6,0.4,1,1,1s1-0.4,1-1v-2
	C34,54.4,33.6,54,33,54z M23,54c-0.6,0-1,0.4-1,1v2c0,0.6,0.4,1,1,1s1-0.4,1-1v-2C24,54.4,23.6,54,23,54z M18,54c-0.6,0-1,0.4-1,1v2
	c0,0.6,0.4,1,1,1s1-0.4,1-1v-2C19,54.4,18.6,54,18,54z M13,54c-0.6,0-1,0.4-1,1c0,0,0,0,0,0.1v2c0,0.5,0.5,1,1,1c0.6,0,1-0.4,1-1v-2
	C14,54.4,13.6,54,13,54z"/>
</svg>
